<svg version="1.1" id="Layer_1" xmlns="http://www.w3.org/2000/svg" xmlns:xlink="http://www.w3.org/1999/xlink" x="0px" y="0px"
	 width="100%" viewBox="0 0 120 121" enable-background="new 0 0 120 121" xml:space="preserve">
<path fill="#FBFBFF" opacity="1.000000" stroke="none" 
	d="
M1.265641,55.253025 
	C1.000000,52.299988 1.000000,49.599972 1.000000,46.449982 
	C6.732894,22.602905 22.376875,9.058158 45.054062,2.065977 
	C54.878651,1.970158 64.292496,2.007242 74.120987,2.025141 
	C96.340240,6.514296 117.117607,27.248512 120.049713,47.804008 
	C120.879951,51.576271 120.316048,55.012409 120.480629,58.801319 
	C118.726891,61.736546 116.901825,59.758137 115.419853,59.017269 
	C106.940216,54.778145 98.295860,50.862854 90.111961,46.033012 
	C82.777039,41.704212 82.509827,41.741142 76.102913,47.003330 
	C66.592110,54.814835 56.884075,62.397739 47.684498,70.572678 
	C43.429108,74.354095 39.628593,75.344650 34.367245,72.224937 
	C25.354334,66.880760 15.488503,63.148872 6.139437,58.413139 
	C4.515930,57.590759 2.760297,56.960812 1.265641,55.253025 
z"/>
<path fill="#FBFBFF" opacity="1.000000" stroke="none" 
	d="
M72.250000,121.798981 
	C64.312424,122.000000 56.624847,122.000000 48.468636,122.000000 
	C47.564800,121.514366 47.021431,121.472832 46.216270,121.809097 
	C46.000000,122.000000 45.500000,122.000000 45.250000,122.000000 
	C44.245346,121.232590 43.251392,121.580750 42.019974,121.339630 
	C21.462248,114.420479 7.464165,101.445663 1.220555,80.290024 
	C1.000000,75.310745 1.000000,70.621490 1.000000,65.466118 
	C3.349472,63.470421 5.129124,65.282547 6.973260,66.144447 
	C17.230692,70.938484 27.126274,76.468048 37.529671,80.986839 
	C41.235630,82.596550 44.011993,82.369041 47.088196,79.753654 
	C56.728012,71.557869 66.802101,63.870335 76.251610,55.458035 
	C80.834160,51.378487 84.871841,50.575066 90.515900,53.689415 
	C100.267487,59.070263 110.292686,63.967358 120.159912,69.843430 
	C120.622070,72.181435 120.543030,74.184326 120.025993,76.542381 
	C119.239914,86.151634 114.497826,93.686485 109.012383,100.592659 
	C100.419052,111.411682 89.859184,119.545944 75.300812,121.775742 
	C74.555557,122.000000 74.111107,122.000000 73.333328,122.000000 
	C72.833336,121.865982 72.666664,121.731964 72.250000,121.798981 
z"/>
<path fill="#645FFF" opacity="1.000000" stroke="none" 
	d="
M120.048363,69.794724 
	C108.891853,64.636925 98.013435,59.244762 87.306961,53.530457 
	C84.392487,51.974930 82.496468,51.888950 79.856201,54.135918 
	C69.081635,63.305466 57.995441,72.108917 47.223736,81.281731 
	C44.043392,83.989998 41.562035,84.623199 37.585133,82.559906 
	C25.781834,76.436150 13.696432,70.856133 1.360657,65.031769 
	C1.000000,61.969406 1.000000,58.938812 1.000000,55.454109 
	C11.546861,59.006546 21.717495,63.956333 31.424505,69.560234 
	C38.767536,73.799385 43.678661,73.220222 49.810768,67.370888 
	C58.564709,59.020634 68.463280,51.880688 77.696480,44.016594 
	C80.695320,41.462421 83.017998,40.837234 86.789375,42.919571 
	C97.394592,48.775154 108.312714,54.064018 119.406998,59.712738 
	C121.319603,62.946922 120.159164,66.242729 120.048363,69.794724 
z"/>
<path fill="#625DFC" opacity="1.000000" stroke="none" 
	d="
M75.468658,122.000000 
	C79.926407,119.849823 85.081528,118.104546 89.737053,115.474815 
	C104.706001,107.019432 114.543053,94.400505 119.222672,77.383072 
	C121.319000,77.833946 120.435509,79.578171 120.439278,80.873695 
	C120.478355,94.291397 120.558952,107.709602 120.215118,121.563698 
	C105.312439,122.000000 90.624878,122.000000 75.468658,122.000000 
z"/>
<path fill="#625DFF" opacity="1.000000" stroke="none" 
	d="
M43.998039,2.791604 
	C31.188896,7.643207 19.696476,14.567654 11.328190,26.040649 
	C6.969118,32.016975 3.803692,38.561958 1.295190,45.796959 
	C1.000000,31.979105 1.000000,17.958210 1.000000,3.468657 
	C1.532809,2.586953 2.126268,2.167746 2.782692,2.164441 
	C16.399166,2.095881 30.019852,1.526964 43.998039,2.791604 
z"/>
<path fill="#625DFF" opacity="1.000000" stroke="none" 
	d="
M1.000000,80.468658 
	C2.341367,80.398705 2.500326,81.646889 2.892559,82.696739 
	C9.887487,101.419243 23.015162,113.803246 42.057331,120.610504 
	C39.661564,122.131683 36.825241,121.427094 34.080147,121.443993 
	C23.351553,121.510017 12.621710,121.558533 1.446323,121.215164 
	C1.000000,107.645775 1.000000,94.291542 1.000000,80.468658 
z"/>
<path fill="#6877A2" opacity="1.000000" stroke="none" 
	d="
M44.805683,3.130284 
	C30.223629,3.075262 16.080275,3.022182 1.468459,2.984551 
	C0.372309,0.507053 2.171879,1.008021 3.500008,1.006420 
	C13.333326,0.994568 23.166666,1.000000 33.000000,1.000000 
	C61.166668,1.000000 89.333633,1.058042 117.499565,0.914812 
	C120.484222,0.899634 121.093544,1.516774 121.083931,4.500270 
	C120.957756,43.666531 121.000000,82.833336 120.500000,122.000000 
	C119.910553,107.246033 119.821098,92.492065 119.541924,77.376106 
	C119.496407,74.986893 119.640617,72.959671 119.745193,70.541389 
	C119.756462,67.024170 119.807365,63.898003 119.782394,60.310478 
	C119.826324,56.138687 120.121284,52.424454 119.434258,48.326416 
	C117.780457,35.543427 118.608185,23.098814 118.390068,10.682092 
	C118.291107,5.048669 117.891235,4.772737 111.943077,4.586129 
	C101.015564,4.243309 90.044914,5.483925 79.159180,3.705361 
	C78.336800,3.570997 77.517708,3.497611 76.263565,3.254735 
	C65.638077,3.091292 55.441227,3.111759 44.805683,3.130284 
z"/>
<path fill="#6261EE" opacity="1.000000" stroke="none" 
	d="
M1.000000,121.500000 
	C14.447164,120.981422 27.894327,120.962852 41.835747,120.899933 
	C43.134247,121.042953 43.938488,121.230309 44.871361,121.708832 
	C30.333334,122.000000 15.666667,122.000000 1.000000,121.500000 
z"/>
<path fill="#E1E4EE" opacity="1.000000" stroke="none" 
	d="
M46.333332,122.000000 
	C46.408405,121.228149 46.953743,120.947601 47.867874,121.758118 
	C47.555553,122.000000 47.111111,122.000000 46.333332,122.000000 
z"/>
<path fill="#E1E4EE" opacity="1.000000" stroke="none" 
	d="
M72.250000,122.000000 
	C72.164711,121.622803 72.339088,121.268600 72.912094,121.826752 
	C73.000000,122.000000 72.500000,122.000000 72.250000,122.000000 
z"/>
<path fill="#625DFD" opacity="1.000000" stroke="none" 
	d="
M76.109055,3.314289 
	C89.155739,3.032854 102.477119,3.049569 115.796928,2.913195 
	C118.640175,2.884084 120.033035,3.509140 119.986160,6.751025 
	C119.791267,20.232492 119.812050,33.717079 119.578354,47.561256 
	C113.127892,25.313490 98.811707,10.502370 76.109055,3.314289 
z"/>
</svg>